<svg width="443" height="193" viewBox="0 0 443 193" fill="none" xmlns="http://www.w3.org/2000/svg">
<path d="M189.447 73.5467C191.379 74.9247 192.438 77.8573 192.62 79.0668L200.419 134.745C201.367 141.802 197.034 148.745 191.488 152.592C188.32 154.785 184.625 156.432 181.297 158.341C172.155 163.623 162.858 168.742 153.663 173.929C151.388 175.213 149.149 176.507 146.885 177.753C141.528 180.774 136.266 177.589 135.316 170.251C134.861 166.728 134.356 162.951 133.817 159.444C132.923 153.481 132.125 147.465 131.242 141.464C130.424 135.802 129.607 130.14 128.874 124.462C128.513 121.604 128.114 118.736 127.668 115.894C127.689 115.82 127.625 115.762 127.646 115.688C126.857 106.917 130.131 101.477 135.725 98.322L181.228 72.6531C183.835 71.1825 187.105 71.7748 189.504 73.4828M173.15 90.0192C173.078 89.5597 172.912 89.1537 172.698 88.7745C171.95 87.447 170.828 87.174 169.358 88.0029L149.924 98.9656C147.744 100.196 146.815 102.094 147.175 104.672L154.973 160.35C154.998 160.836 155.117 161.269 155.33 161.648C156.078 162.976 157.201 163.248 158.67 162.42L178.199 151.403C180.379 150.173 181.308 148.275 180.922 145.65L173.123 89.9718L173.15 90.0192ZM253.429 85.5966C252.788 84.4588 253.236 83.425 254.753 82.5694L262.526 78.1843C264.28 77.195 266.698 75.1123 267.771 73.4136C270.21 69.5386 271.247 65.3924 270.683 60.6802L267.285 36.9168C266.799 33.5046 265.244 31.6325 262.144 30.2885C260.215 29.4708 257.768 29.5077 255.93 30.5134L202.226 60.808C197.913 63.2412 190.992 67.145 190.992 67.145L191.286 67.6665C194.154 67.2674 198.237 67.8069 201.241 68.9243C201.389 68.9656 201.537 69.007 201.675 69.0854C202.231 69.2404 202.87 69.0988 203.581 68.6978L244.06 45.8632C245.529 45.0343 246.651 45.3073 247.4 46.6347C247.613 47.014 247.732 47.4468 247.746 47.9701L251.171 71.7809C251.547 74.443 250.655 76.352 248.465 77.619L228.936 88.6352C227.467 89.4642 226.307 89.1808 225.532 87.8059C225.345 87.4741 225.179 87.0681 225.081 86.5612L222.99 70.7143C222.918 70.2547 222.752 69.8487 222.538 69.4695C221.736 68.0472 220.614 67.7742 219.145 68.6031L206.157 75.9294C203.977 77.1594 203.075 79.1054 203.498 81.7408L211.18 137.266C211.315 137.783 211.481 138.189 211.631 138.511C212.433 139.933 213.555 140.206 215.024 139.377L228.012 132.051C230.192 130.821 231.094 128.875 230.671 126.24L227.23 102.344C226.928 99.7028 227.63 97.9008 229.374 96.9486C231.08 95.986 232.756 96.1338 234.345 97.4559L254.788 113.666C256.424 114.961 258.337 114.975 260.518 113.746L279.951 102.783C283.459 100.804 291.944 96.018 291.944 96.018L291.569 95.3542C288.544 95.749 284.419 95.3579 280.888 94.4131C280.814 94.3924 280.776 94.3821 280.702 94.3614C280.146 94.2064 279.535 94.3953 278.824 94.7964L273.657 97.7109C271.477 98.9409 269.563 98.9267 267.927 97.6314L253.873 86.4397C253.692 86.2294 253.485 85.9716 253.351 85.7346M421.36 -62.682C421.36 -62.682 417.473 -60.4895 413.824 -58.4306L361.779 -29.0718C356.375 -26.0237 352.706 -19.4551 353.663 -11.7161L357.062 12.0474C357.696 17.219 363.456 21.3427 368.433 18.5352L400.95 0.192676C402.419 -0.636209 403.541 -0.363233 404.289 0.964235C404.503 1.34352 404.659 1.7866 404.731 2.24609L407.05 18.2766C407.352 20.918 406.423 22.8167 404.327 24.0302L365.27 46.0627C364.18 46.6776 363.44 47.4701 362.985 48.3824C362.882 48.7531 362.768 49.1609 362.628 49.5213C362.628 49.5213 362.628 49.5213 362.607 49.5955C361.553 52.658 359.997 55.6603 358.335 57.754L358.709 58.4177L366.34 54.1128C368.758 52.7492 371.033 51.4657 371.886 50.9844L418.432 24.7274C423.931 21.6257 427.363 13.4726 426.511 7.36125L424.35 -8.66498C423.62 -13.7832 417.782 -17.7689 412.9 -15.0149L380.384 3.32766C378.914 4.15655 377.792 3.88356 376.99 2.46128C376.803 2.12941 376.674 1.73373 376.539 1.21649L373.245 -22.6375C372.886 -25.2151 373.778 -27.1241 375.958 -28.354L415.015 -50.3865C416.011 -50.948 416.792 -51.8888 417.286 -53.2295C417.358 -53.489 417.431 -53.7485 417.503 -54.008C418.536 -56.9964 420.082 -59.9617 421.714 -61.9441L421.34 -62.6078M341.15 -17.4036L321.621 -6.38736C317.071 -3.82048 309.05 0.735385 309.05 0.735385L309.478 1.49393C314.827 0.788155 321.424 0.909673 326.778 5.19987L334.356 59.3777C334.715 61.9554 333.813 63.9014 331.633 65.1314L312.104 76.1476C310.635 76.9765 309.513 76.7035 308.764 75.3761C308.551 74.9968 308.432 74.564 308.407 74.0778L299.45 10.5247C299.409 9.95402 299.29 9.52127 299.093 9.22648C298.291 7.80419 297.169 7.5312 295.7 8.3601L276.171 19.3763C271.621 21.9432 263.552 26.5258 263.552 26.5258C263.552 26.5258 263.777 26.868 263.98 27.2843C269.329 26.5786 276 26.7208 281.317 31.0006L288.916 85.1043C289.641 90.3812 295.484 94.2083 300.366 91.4542L345.87 65.7854C348.714 64.1811 351.178 61.0725 352.652 58.3668C353.812 56.2129 354.457 52.0375 353.948 48.4193L344.99 -15.1338C344.95 -15.7045 344.831 -16.1372 344.633 -16.432C343.832 -17.8543 342.71 -18.1273 341.24 -17.2984M112.49 111.741L79.9741 130.084C77.7937 131.314 76.152 133.333 75.0387 136.179L42.4891 222.959L40.1548 229.181C39.7352 230.542 39.194 231.91 38.6158 233.267C37.4224 235.971 36.0005 238.491 34.4743 240.383L34.9286 241.189L38.7679 239.023C43.0339 236.617 49.5277 232.954 51.2815 231.964L52.0872 231.51C54.2676 230.28 55.8619 228.287 56.9174 225.505L70.0967 190.422C71.1523 187.639 72.7569 185.609 74.9372 184.379L99.6798 170.422C101.149 169.593 102.271 169.866 103.019 171.194C103.233 171.573 103.352 172.006 103.376 172.492L105.387 186.478C105.136 191.962 101.962 199.908 98.4637 204.286L98.918 205.092C98.918 205.092 105.601 201.322 110.531 198.541L123.566 191.188C125.746 189.958 126.648 188.012 126.262 185.387L116.277 113.916C116.237 113.345 116.081 112.902 115.931 112.581C115.129 111.158 114.007 110.885 112.538 111.714M96.2615 133.267L99.5917 157.132C99.9677 159.794 99.0758 161.703 96.8954 162.933L77.3669 173.949C76.4663 174.457 75.869 174.45 75.6121 173.939C75.3182 173.418 75.3767 172.635 75.7981 171.554L88.9774 136.47C90.033 133.688 91.4376 131.802 93.1543 130.803C94.2445 130.188 95.1133 130.51 95.8184 131.705C96.0588 132.132 96.2312 132.66 96.2821 133.193" fill="#0B0B0C"/>
<path d="M189.447 73.5467C191.379 74.9247 192.438 77.8573 192.62 79.0668L200.419 134.745C201.367 141.802 197.034 148.745 191.488 152.592C188.32 154.785 184.625 156.432 181.297 158.341C172.155 163.623 162.858 168.742 153.663 173.929C151.388 175.213 149.149 176.507 146.885 177.753C141.528 180.774 136.266 177.589 135.316 170.251C134.861 166.728 134.356 162.951 133.817 159.444C132.923 153.481 132.125 147.465 131.242 141.464C130.424 135.802 129.607 130.14 128.874 124.462C128.513 121.604 128.114 118.736 127.668 115.894C127.689 115.82 127.625 115.762 127.646 115.688C126.857 106.917 130.131 101.477 135.725 98.322L181.228 72.6531C183.835 71.1825 187.105 71.7748 189.504 73.4828M253.429 85.5966C252.788 84.4588 253.236 83.425 254.753 82.5694L262.526 78.1843C264.28 77.195 266.698 75.1123 267.771 73.4136C270.21 69.5386 271.247 65.3924 270.683 60.6802L267.285 36.9168C266.799 33.5046 265.244 31.6325 262.144 30.2885C260.215 29.4708 257.768 29.5077 255.93 30.5134L202.226 60.808C197.913 63.2412 190.992 67.145 190.992 67.145L191.286 67.6665C194.154 67.2674 198.237 67.8069 201.241 68.9243C201.389 68.9656 201.537 69.007 201.675 69.0854C202.231 69.2404 202.87 69.0988 203.581 68.6978L244.06 45.8632C245.529 45.0343 246.651 45.3073 247.4 46.6348C247.613 47.014 247.732 47.4468 247.746 47.9701L251.171 71.7809C251.547 74.443 250.655 76.352 248.465 77.619L228.936 88.6353C227.467 89.4641 226.307 89.1808 225.532 87.8059C225.345 87.4741 225.179 87.0681 225.081 86.5612L222.99 70.7142C222.918 70.2548 222.752 69.8487 222.538 69.4695C221.736 68.0472 220.614 67.7742 219.145 68.6031L206.157 75.9294C203.977 77.1594 203.075 79.1054 203.498 81.7408L211.18 137.266C211.315 137.783 211.481 138.189 211.631 138.511C212.433 139.933 213.555 140.206 215.024 139.377L228.012 132.051C230.192 130.821 231.094 128.875 230.671 126.24L227.23 102.344C226.928 99.7028 227.63 97.9008 229.374 96.9486C231.08 95.986 232.756 96.1338 234.345 97.4559L254.788 113.666C256.424 114.961 258.337 114.975 260.518 113.746L279.951 102.783C283.459 100.804 291.944 96.018 291.944 96.018L291.569 95.3542C288.544 95.749 284.419 95.3579 280.888 94.4131C280.814 94.3924 280.776 94.3821 280.702 94.3614C280.146 94.2064 279.535 94.3953 278.824 94.7964L273.657 97.7109C271.477 98.9409 269.563 98.9267 267.927 97.6314L253.873 86.4397C253.692 86.2294 253.485 85.9716 253.351 85.7346M421.36 -62.682C421.36 -62.682 417.473 -60.4895 413.824 -58.4306L361.779 -29.0718C356.375 -26.0237 352.706 -19.4551 353.663 -11.7161L357.062 12.0473C357.696 17.219 363.456 21.3427 368.433 18.5352L400.95 0.192675C402.419 -0.636215 403.541 -0.363227 404.289 0.964236C404.503 1.34351 404.659 1.7866 404.731 2.24609L407.05 18.2766C407.352 20.918 406.423 22.8167 404.327 24.0302L365.27 46.0627C364.18 46.6776 363.44 47.4701 362.985 48.3824C362.882 48.7531 362.768 49.1609 362.628 49.5213C362.628 49.5213 362.628 49.5213 362.607 49.5955C361.553 52.658 359.997 55.6603 358.335 57.754L358.709 58.4177L366.34 54.1128C368.758 52.7492 371.033 51.4657 371.886 50.9844L418.432 24.7274C423.931 21.6257 427.363 13.4726 426.511 7.36125L424.35 -8.66498C423.62 -13.7832 417.782 -17.7689 412.9 -15.0149L380.384 3.32766C378.914 4.15655 377.792 3.88356 376.99 2.46127C376.803 2.12941 376.674 1.73373 376.539 1.2165L373.245 -22.6375C372.886 -25.2151 373.778 -27.1241 375.958 -28.3541L415.015 -50.3865C416.011 -50.948 416.792 -51.8888 417.286 -53.2295C417.359 -53.489 417.431 -53.7485 417.503 -54.008C418.536 -56.9964 420.082 -59.9617 421.714 -61.9441L421.34 -62.6078M341.15 -17.4036L321.621 -6.38736C317.071 -3.82048 309.05 0.735383 309.05 0.735383L309.478 1.49394C314.827 0.788154 321.424 0.909673 326.778 5.19987L334.356 59.3777C334.715 61.9554 333.813 63.9014 331.633 65.1314L312.104 76.1476C310.635 76.9765 309.513 76.7035 308.764 75.376C308.551 74.9968 308.432 74.564 308.407 74.0778L299.45 10.5247C299.409 9.95402 299.29 9.52127 299.093 9.22648C298.291 7.8042 297.169 7.53121 295.7 8.3601L276.171 19.3763C271.621 21.9432 263.552 26.5258 263.552 26.5258C263.552 26.5258 263.777 26.868 263.98 27.2843C269.329 26.5786 276 26.7208 281.317 31.0006L288.916 85.1043C289.641 90.3812 295.484 94.2083 300.366 91.4542L345.87 65.7854C348.714 64.1811 351.178 61.0725 352.652 58.3668C353.812 56.2129 354.457 52.0375 353.948 48.4193L344.99 -15.1338C344.95 -15.7045 344.831 -16.1372 344.633 -16.432C343.832 -17.8543 342.71 -18.1273 341.24 -17.2984M112.49 111.741L79.9741 130.084C77.7937 131.314 76.152 133.333 75.0387 136.179L42.4891 222.959L40.1548 229.181C39.7352 230.542 39.194 231.91 38.6158 233.267C37.4224 235.971 36.0005 238.491 34.4743 240.383L34.9286 241.189L38.7679 239.023C43.0339 236.617 49.5277 232.954 51.2815 231.964L52.0872 231.51C54.2676 230.28 55.8619 228.287 56.9174 225.505L70.0967 190.422C71.1522 187.639 72.7569 185.609 74.9372 184.379L99.6798 170.422C101.149 169.593 102.271 169.866 103.02 171.194C103.233 171.573 103.352 172.006 103.376 172.492L105.387 186.478C105.136 191.962 101.962 199.908 98.4637 204.286L98.918 205.092C98.918 205.092 105.601 201.322 110.531 198.541L123.566 191.188C125.746 189.958 126.648 188.012 126.262 185.387L116.277 113.916C116.237 113.345 116.081 112.902 115.931 112.581C115.129 111.158 114.007 110.885 112.538 111.714M96.2615 133.267L99.5917 157.132C99.9677 159.794 99.0758 161.703 96.8954 162.933L77.3669 173.949C76.4663 174.457 75.869 174.45 75.6121 173.939C75.3182 173.418 75.3767 172.635 75.7981 171.554L88.9774 136.47C90.0329 133.688 91.4376 131.802 93.1543 130.803C94.2445 130.188 95.1133 130.51 95.8184 131.705C96.0589 132.132 96.2313 132.66 96.2821 133.193M173.15 90.0192C173.078 89.5597 172.912 89.1537 172.698 88.7744C171.95 87.447 170.828 87.174 169.358 88.0029L149.924 98.9656C147.744 100.196 146.815 102.094 147.175 104.672L154.973 160.35C154.998 160.836 155.117 161.269 155.33 161.648C156.078 162.976 157.201 163.248 158.67 162.42L178.199 151.403C180.379 150.173 181.308 148.275 180.922 145.65L173.123 89.9718L173.15 90.0192Z" stroke="#404040" stroke-width="0.6" stroke-miterlimit="10"/>
<path d="M180.523 69.742C182.455 71.12 183.514 74.0527 183.696 75.2622L191.495 130.94C192.443 137.997 188.11 144.94 182.563 148.787C179.395 150.981 175.701 152.627 172.373 154.536C163.23 159.818 153.934 164.937 144.739 170.125C142.463 171.408 140.225 172.702 137.96 173.948C132.604 176.97 127.342 173.784 126.392 166.447C125.937 162.923 125.432 159.146 124.893 155.639C123.999 149.676 123.201 143.66 122.318 137.66C121.5 131.998 120.683 126.335 119.95 120.657C119.589 117.799 119.19 114.931 118.744 112.089C118.765 112.015 118.701 111.958 118.722 111.883C117.933 103.112 121.207 97.6724 126.8 94.5173L172.304 68.8484C174.911 67.3778 178.181 67.9701 180.58 69.6782M164.225 86.2146C164.154 85.7551 163.988 85.3491 163.774 84.9698C163.026 83.6423 161.903 83.3693 160.434 84.1982L141 95.1609C138.82 96.3909 137.891 98.2896 138.251 100.867L146.049 156.545C146.073 157.031 146.192 157.464 146.406 157.843C147.154 159.171 148.277 159.444 149.746 158.615L169.275 147.599C171.455 146.369 172.384 144.47 171.998 141.845L164.199 86.1672L164.225 86.2146ZM244.505 81.792C243.864 80.6541 244.312 79.6203 245.829 78.7647L253.602 74.3796C255.356 73.3903 257.774 71.3076 258.847 69.609C261.286 65.7339 262.322 61.5877 261.759 56.8755L258.361 33.1121C257.875 29.7 256.32 27.8279 253.22 26.4838C251.291 25.6661 248.844 25.703 247.006 26.7088L193.302 57.0033C188.989 59.4365 182.068 63.3403 182.068 63.3403L182.362 63.8618C185.23 63.4628 189.313 64.0022 192.317 65.1196C192.465 65.1609 192.613 65.2023 192.751 65.2807C193.307 65.4357 193.946 65.2942 194.657 64.8931L235.136 42.0585C236.605 41.2296 237.727 41.5026 238.475 42.8301C238.689 43.2093 238.808 43.6421 238.822 44.1654L242.247 67.9762C242.623 70.6384 241.731 72.5473 239.54 73.8144L220.012 84.8306C218.542 85.6595 217.383 85.3762 216.608 84.0013C216.421 83.6694 216.255 83.2634 216.157 82.7565L214.066 66.9096C213.994 66.4501 213.828 66.0441 213.614 65.6648C212.812 64.2425 211.69 63.9695 210.221 64.7984L197.233 72.1247C195.053 73.3547 194.151 75.3007 194.574 77.9361L202.256 133.461C202.391 133.979 202.557 134.385 202.707 134.706C203.509 136.129 204.631 136.402 206.1 135.573L219.088 128.246C221.268 127.016 222.17 125.07 221.747 122.435L218.306 98.5396C218.004 95.8982 218.743 94.1065 220.449 93.1439C222.156 92.1813 223.832 92.3291 225.421 93.6512L245.864 109.861C247.5 111.157 249.413 111.171 251.594 109.941L271.027 98.9781C274.535 96.9995 283.019 92.2133 283.019 92.2133L282.645 91.5496C279.619 91.9444 275.495 91.5532 271.964 90.6084C271.889 90.5877 271.852 90.5774 271.778 90.5567C271.222 90.4017 270.61 90.5907 269.899 90.9917L264.733 93.9062C262.553 95.1362 260.639 95.1221 259.003 93.8267L244.949 82.635C244.768 82.4247 244.561 82.167 244.427 81.9299M412.436 -66.4867C412.436 -66.4867 408.549 -64.2941 404.9 -62.2353L352.855 -32.8765C347.451 -29.8284 343.782 -23.2597 344.739 -15.5208L348.138 8.24268C348.772 13.4144 354.532 17.538 359.509 14.7305L392.026 -3.612C393.495 -4.4409 394.617 -4.16791 395.365 -2.84044C395.579 -2.46117 395.735 -2.01808 395.807 -1.55859L398.126 14.4719C398.428 17.1134 397.499 19.012 395.403 20.2256L356.346 42.258C355.256 42.873 354.515 43.6655 354.061 44.5777C353.958 44.9484 353.844 45.3562 353.704 45.7167C353.704 45.7167 353.704 45.7167 353.683 45.7908C352.629 48.8533 351.073 51.8556 349.411 53.9493L349.785 54.613L357.416 50.3082C359.833 48.9445 362.109 47.6611 362.962 47.1798L409.508 20.9227C415.007 17.821 418.439 9.66792 417.587 3.55657L415.426 -12.4697C414.696 -17.5879 408.858 -21.5736 403.976 -18.8196L371.459 -0.477018C369.99 0.351873 368.868 0.0788826 368.066 -1.3434C367.879 -1.67527 367.75 -2.07096 367.615 -2.58819L364.321 -26.4422C363.962 -29.0198 364.854 -30.9288 367.034 -32.1587L406.091 -54.1912C407.087 -54.7527 407.868 -55.6934 408.362 -57.0342C408.434 -57.2937 408.507 -57.5532 408.579 -57.8127C409.612 -60.8011 411.158 -63.7663 412.79 -65.7488L412.415 -66.4125M332.226 -21.2083L312.697 -10.192C308.147 -7.62516 300.126 -3.06929 300.126 -3.06929L300.553 -2.31073C305.903 -3.01651 312.499 -2.89501 317.854 1.39519L325.432 55.5731C325.791 58.1507 324.889 60.0968 322.709 61.3267L303.18 72.3429C301.711 73.1719 300.578 72.9359 299.84 71.5714C299.627 71.1921 299.508 70.7593 299.483 70.2731L290.526 6.72007C290.485 6.14936 290.366 5.7166 290.169 5.42182C289.367 3.99953 288.245 3.72654 286.776 4.55543L267.247 15.5716C262.697 18.1385 254.628 22.7211 254.628 22.7211C254.628 22.7211 254.852 23.0633 255.056 23.4797C260.405 22.7739 267.076 22.9161 272.393 27.1959L279.992 81.2997C280.717 86.5765 286.56 90.4036 291.442 87.6496L336.946 61.9807C339.789 60.3764 342.254 57.2678 343.728 54.5621C344.888 52.4082 345.533 48.2328 345.024 44.6146L336.066 -18.9385C336.026 -19.5092 335.907 -19.9419 335.709 -20.2367C334.908 -21.659 333.786 -21.932 332.316 -21.1031M103.566 107.936L71.05 126.279C68.8696 127.509 67.2279 129.528 66.1146 132.375L33.565 219.155L31.2307 225.376C30.8111 226.738 30.27 228.105 29.6918 229.462C28.4983 232.166 27.0764 234.687 25.5503 236.579L26.0045 237.385L29.8439 235.219C34.1098 232.812 40.6036 229.149 42.3574 228.16L43.1632 227.705C45.3435 226.475 46.9378 224.482 47.9934 221.7L61.1726 186.617C62.2282 183.835 63.8328 181.805 66.0132 180.575L90.7557 166.617C92.2251 165.788 93.3472 166.061 94.0954 167.389C94.3092 167.768 94.4282 168.201 94.4523 168.687L96.4632 182.674C96.212 188.158 93.0376 196.103 89.5397 200.482L89.9939 201.288C89.9939 201.288 96.6772 197.518 101.607 194.737L114.642 187.384C116.822 186.154 117.724 184.208 117.338 181.583L107.353 110.111C107.313 109.541 107.157 109.098 107.007 108.776C106.205 107.354 105.083 107.081 103.613 107.91M87.3374 129.463L90.6677 153.327C91.0436 155.989 90.1518 157.898 87.9714 159.128L68.4428 170.144C67.5422 170.652 66.9449 170.646 66.6881 170.134C66.3941 169.613 66.4527 168.83 66.874 167.749L80.0533 132.666C81.1088 129.883 82.5135 127.997 84.2303 126.998C85.3204 126.383 86.1892 126.705 86.8943 127.901C87.1348 128.327 87.3072 128.855 87.3581 129.389" fill="#0B0B0C"/>
<path d="M180.523 69.742C182.455 71.12 183.514 74.0527 183.696 75.2622L191.495 130.94C192.443 137.997 188.11 144.94 182.563 148.787C179.395 150.981 175.701 152.627 172.373 154.536C163.23 159.818 153.934 164.937 144.739 170.125C142.463 171.408 140.225 172.702 137.96 173.948C132.604 176.97 127.342 173.784 126.392 166.447C125.937 162.923 125.432 159.146 124.893 155.639C123.999 149.676 123.201 143.66 122.318 137.66C121.5 131.998 120.683 126.335 119.95 120.657C119.589 117.799 119.19 114.931 118.744 112.089C118.765 112.015 118.701 111.958 118.722 111.883C117.933 103.112 121.207 97.6724 126.8 94.5173L172.304 68.8484C174.911 67.3778 178.181 67.9701 180.58 69.6782M244.505 81.792C243.864 80.6541 244.312 79.6203 245.829 78.7647L253.602 74.3796C255.356 73.3903 257.774 71.3076 258.847 69.609C261.286 65.7339 262.322 61.5877 261.759 56.8755L258.361 33.1121C257.875 29.7 256.32 27.8279 253.22 26.4838C251.291 25.6662 248.844 25.703 247.006 26.7088L193.302 57.0033C188.989 59.4365 182.068 63.3403 182.068 63.3403L182.362 63.8618C185.23 63.4628 189.313 64.0022 192.317 65.1196C192.465 65.1609 192.613 65.2023 192.751 65.2807C193.307 65.4357 193.946 65.2942 194.657 64.8931L235.136 42.0585C236.605 41.2296 237.727 41.5026 238.475 42.8301C238.689 43.2093 238.808 43.6421 238.822 44.1654L242.247 67.9762C242.623 70.6384 241.731 72.5473 239.54 73.8144L220.012 84.8306C218.542 85.6595 217.383 85.3762 216.608 84.0013C216.421 83.6694 216.255 83.2634 216.157 82.7565L214.065 66.9096C213.994 66.4501 213.828 66.0441 213.614 65.6648C212.812 64.2425 211.69 63.9695 210.221 64.7984L197.233 72.1247C195.053 73.3547 194.151 75.3007 194.574 77.9361L202.256 133.461C202.391 133.979 202.557 134.385 202.707 134.706C203.509 136.129 204.631 136.402 206.1 135.573L219.088 128.246C221.268 127.016 222.17 125.07 221.747 122.435L218.306 98.5396C218.004 95.8982 218.743 94.1065 220.449 93.1439C222.156 92.1813 223.832 92.3291 225.421 93.6512L245.864 109.861C247.5 111.157 249.413 111.171 251.594 109.941L271.027 98.9781C274.535 96.9995 283.019 92.2133 283.019 92.2133L282.645 91.5496C279.619 91.9444 275.495 91.5532 271.964 90.6084C271.889 90.5877 271.852 90.5774 271.778 90.5567C271.222 90.4017 270.61 90.5907 269.899 90.9917L264.733 93.9062C262.553 95.1362 260.639 95.122 259.003 93.8267L244.949 82.635C244.768 82.4247 244.561 82.167 244.427 81.9299M412.436 -66.4867C412.436 -66.4867 408.549 -64.2941 404.9 -62.2353L352.855 -32.8765C347.451 -29.8284 343.782 -23.2597 344.739 -15.5208L348.138 8.24268C348.772 13.4144 354.532 17.538 359.509 14.7305L392.026 -3.61201C393.495 -4.4409 394.617 -4.16791 395.365 -2.84045C395.579 -2.46117 395.735 -2.01808 395.807 -1.55859L398.126 14.4719C398.428 17.1134 397.499 19.012 395.403 20.2256L356.346 42.258C355.256 42.873 354.515 43.6655 354.061 44.5777C353.958 44.9484 353.844 45.3562 353.704 45.7167C353.704 45.7167 353.704 45.7167 353.683 45.7908C352.629 48.8533 351.073 51.8557 349.411 53.9493L349.785 54.6131L357.416 50.3082C359.833 48.9445 362.109 47.6611 362.962 47.1798L409.508 20.9227C415.007 17.821 418.439 9.66791 417.587 3.55657L415.426 -12.4697C414.696 -17.5879 408.858 -21.5736 403.976 -18.8196L371.459 -0.477015C369.99 0.351875 368.868 0.0788818 368.066 -1.3434C367.879 -1.67527 367.75 -2.07095 367.615 -2.58819L364.321 -26.4422C363.962 -29.0198 364.854 -30.9288 367.034 -32.1587L406.091 -54.1912C407.087 -54.7527 407.868 -55.6934 408.362 -57.0342C408.434 -57.2937 408.507 -57.5532 408.579 -57.8127C409.612 -60.8011 411.158 -63.7663 412.79 -65.7488L412.415 -66.4125M332.226 -21.2083L312.697 -10.192C308.147 -7.62516 300.126 -3.06928 300.126 -3.06928L300.553 -2.31073C305.903 -3.01651 312.499 -2.89501 317.854 1.39519L325.432 55.5731C325.791 58.1507 324.889 60.0968 322.709 61.3267L303.18 72.343C301.711 73.1718 300.578 72.9359 299.84 71.5714C299.627 71.1921 299.508 70.7593 299.483 70.2731L290.526 6.72007C290.485 6.14936 290.366 5.71661 290.169 5.42181C289.367 3.99953 288.245 3.72654 286.776 4.55543L267.247 15.5716C262.697 18.1385 254.628 22.7211 254.628 22.7211C254.628 22.7211 254.852 23.0633 255.056 23.4797C260.405 22.7739 267.076 22.9161 272.393 27.1959L279.992 81.2997C280.717 86.5765 286.56 90.4036 291.442 87.6496L336.946 61.9807C339.789 60.3764 342.254 57.2678 343.728 54.5621C344.888 52.4082 345.533 48.2328 345.024 44.6146L336.066 -18.9385C336.026 -19.5092 335.907 -19.9419 335.709 -20.2367C334.908 -21.659 333.786 -21.932 332.316 -21.1031M103.566 107.936L71.05 126.279C68.8696 127.509 67.2279 129.528 66.1146 132.375L33.565 219.155L31.2307 225.376C30.8111 226.738 30.27 228.105 29.6918 229.462C28.4983 232.166 27.0764 234.687 25.5503 236.579L26.0045 237.385L29.8439 235.219C34.1098 232.812 40.6036 229.149 42.3574 228.16L43.1632 227.705C45.3435 226.475 46.9378 224.483 47.9934 221.7L61.1726 186.617C62.2282 183.835 63.8328 181.805 66.0132 180.575L90.7557 166.617C92.2251 165.788 93.3472 166.061 94.0954 167.389C94.3092 167.768 94.4282 168.201 94.4523 168.687L96.4632 182.674C96.212 188.158 93.0376 196.103 89.5397 200.482L89.9939 201.288C89.9939 201.288 96.6772 197.518 101.607 194.737L114.642 187.384C116.822 186.154 117.724 184.208 117.338 181.583L107.353 110.111C107.313 109.541 107.157 109.098 107.007 108.776C106.205 107.354 105.083 107.081 103.613 107.91M87.3374 129.463L90.6677 153.327C91.0436 155.989 90.1517 157.898 87.9714 159.128L68.4428 170.144C67.5422 170.652 66.9449 170.646 66.688 170.134C66.3941 169.613 66.4527 168.83 66.874 167.749L80.0533 132.666C81.1089 129.883 82.5135 127.997 84.2303 126.998C85.3204 126.383 86.1892 126.705 86.8943 127.901C87.1348 128.327 87.3072 128.855 87.3581 129.389M164.225 86.2146C164.154 85.7551 163.988 85.349 163.774 84.9698C163.026 83.6423 161.903 83.3693 160.434 84.1982L141 95.1609C138.82 96.3909 137.891 98.2896 138.251 100.867L146.049 156.545C146.073 157.031 146.192 157.464 146.406 157.843C147.154 159.171 148.277 159.444 149.746 158.615L169.275 147.599C171.455 146.369 172.384 144.47 171.998 141.845L164.199 86.1672L164.225 86.2146Z" stroke="#404040" stroke-width="0.6" stroke-miterlimit="10"/>
<path d="M171.625 65.9797C173.558 67.3577 174.617 70.2904 174.799 71.4999L182.598 127.178C183.556 134.198 179.213 141.178 173.666 145.025C170.498 147.218 166.804 148.865 163.475 150.774C154.333 156.056 145.037 161.175 135.841 166.362C133.566 167.646 131.328 168.94 129.063 170.186C123.707 173.207 118.445 170.022 117.495 162.684C117.04 159.161 116.535 155.384 115.995 151.877C115.102 145.914 114.304 139.898 113.421 133.898C112.603 128.235 111.786 122.573 111.053 116.895C110.691 114.037 110.293 111.169 109.847 108.327C109.868 108.253 109.804 108.195 109.825 108.121C109.036 99.3501 112.31 93.9101 117.903 90.755L163.407 65.0862C166.014 63.6156 169.284 64.2078 171.683 65.9159M155.328 82.4523C155.257 81.9928 155.09 81.5868 154.877 81.2075C154.128 79.88 153.006 79.607 151.537 80.4359L132.103 91.3987C129.923 92.6286 128.994 94.5273 129.353 97.1049L137.152 152.783C137.176 153.269 137.295 153.702 137.509 154.081C138.257 155.409 139.379 155.682 140.849 154.853L160.377 143.836C162.558 142.606 163.487 140.708 163.1 138.083L155.302 82.4049L155.328 82.4523ZM235.608 78.0297C234.967 76.8918 235.415 75.858 236.932 75.0024L244.705 70.6173C246.459 69.628 248.877 67.5453 249.95 65.8467C252.389 61.9716 253.425 57.8254 252.862 53.1132L249.464 29.3498C248.977 25.9377 247.423 24.0656 244.322 22.7215C242.394 21.9039 239.947 21.9407 238.108 22.9465L184.405 53.241C180.091 55.6742 173.171 59.578 173.171 59.578L173.465 60.0996C176.332 59.7005 180.416 60.2399 183.419 61.3573C183.568 61.3986 183.716 61.44 183.854 61.5184C184.41 61.6734 185.048 61.5319 185.759 61.1308L226.239 38.2962C227.708 37.4673 228.83 37.7403 229.578 39.0678C229.792 39.4471 229.911 39.8798 229.962 40.4135L233.387 64.2243C233.763 66.8864 232.871 68.7954 230.68 70.0624L211.152 81.0786C209.682 81.9075 208.523 81.6242 207.748 80.2493C207.561 79.9175 207.395 79.5114 207.297 79.0045L205.205 63.1576C205.134 62.6981 204.967 62.2921 204.754 61.9128C203.952 60.4906 202.83 60.2176 201.361 61.0465L188.373 68.3728C186.193 69.6028 185.29 71.5488 185.714 74.1842L193.395 129.71C193.531 130.227 193.697 130.633 193.847 130.954C194.649 132.377 195.771 132.65 197.24 131.821L210.228 124.494C212.408 123.264 213.31 121.318 212.887 118.683L209.445 94.7877C209.144 92.1462 209.883 90.3545 211.589 89.3919C213.296 88.4294 214.972 88.5772 216.561 89.8992L237.004 106.109C238.64 107.405 240.553 107.419 242.733 106.189L262.167 95.2262C265.675 93.2475 274.159 88.4613 274.159 88.4613L273.785 87.7976C270.759 88.1924 266.635 87.8013 263.103 86.8565C263.029 86.8358 262.992 86.8254 262.918 86.8048C262.362 86.6497 261.75 86.8387 261.039 87.2398L255.873 90.1543C253.692 91.3842 251.779 91.3701 250.143 90.0748L236.089 78.883C235.908 78.6727 235.7 78.415 235.567 78.178M403.576 -70.2386C403.576 -70.2386 399.689 -68.0461 396.039 -65.9872L343.995 -36.6285C338.591 -33.5803 334.922 -27.0117 335.879 -19.2727L339.278 4.49072C339.912 9.66241 345.672 13.7861 350.649 10.9786L383.165 -7.36397C384.635 -8.19286 385.757 -7.91988 386.505 -6.59241C386.719 -6.21314 386.875 -5.77004 386.946 -5.31055L389.266 10.7199C389.568 13.3614 388.639 15.26 386.543 16.4736L347.486 38.506C346.396 39.121 345.655 39.9135 345.201 40.8258C345.098 41.1965 344.984 41.6043 344.844 41.9647C344.844 41.9647 344.844 41.9647 344.823 42.0388C343.769 45.1014 342.213 48.1037 340.551 50.1974L340.925 50.8611L348.556 46.5562C350.973 45.1926 353.249 43.9091 354.102 43.4278L400.648 17.1707C406.146 14.0691 409.579 5.91596 408.727 -0.19538L406.566 -16.2216C405.836 -21.3398 399.998 -25.3256 395.115 -22.5715L362.599 -4.22897C361.13 -3.40008 360.008 -3.67307 359.206 -5.09536C359.019 -5.42722 358.89 -5.82291 358.754 -6.34014L355.461 -30.1941C355.102 -32.7718 355.994 -34.6807 358.174 -35.9107L397.231 -57.9431C398.227 -58.5046 399.008 -59.4454 399.502 -60.7861C399.574 -61.0457 399.647 -61.3052 399.719 -61.5647C400.752 -64.5531 402.298 -67.5183 403.929 -69.5008L403.555 -70.1645M323.366 -24.9602L303.837 -13.944C299.287 -11.3771 291.266 -6.82124 291.266 -6.82124L291.693 -6.06269C297.043 -6.76847 303.639 -6.64696 308.993 -2.35676L316.572 51.8211C316.931 54.3988 316.029 56.3448 313.849 57.5748L294.32 68.591C292.851 69.4199 291.728 69.1469 290.98 67.8194C290.766 67.4401 290.647 67.0074 290.623 66.5212L281.666 2.96811C281.625 2.3974 281.506 1.96464 281.309 1.66986C280.507 0.247572 279.385 -0.0254338 277.915 0.803458L258.387 11.8197C253.837 14.3866 245.768 18.9692 245.768 18.9692C245.768 18.9692 245.992 19.3114 246.196 19.7277C251.545 19.0219 258.216 19.1641 263.533 23.444L271.132 77.5477C271.857 82.8246 277.7 86.6517 282.582 83.8976L328.085 58.2288C330.929 56.6245 333.394 53.5158 334.868 50.8101C336.027 48.6562 336.673 44.4808 336.164 40.8627L327.206 -22.6904C327.166 -23.2611 327.047 -23.6939 326.849 -23.9887C326.048 -25.411 324.926 -25.6839 323.456 -24.8551M94.7059 104.184L62.1899 122.527C60.0095 123.757 58.3678 125.776 57.2545 128.623L24.7049 215.403L22.3706 221.624C21.951 222.986 21.4098 224.353 20.8317 225.71C19.6382 228.414 18.2163 230.935 16.6902 232.827L17.1444 233.633L20.9838 231.467C25.2497 229.06 31.7435 225.397 33.4972 224.408L34.303 223.953C36.4834 222.723 38.0777 220.731 39.1332 217.948L52.3125 182.865C53.3681 180.083 54.9727 178.053 57.1531 176.823L81.8956 162.865C83.365 162.037 84.4871 162.31 85.2353 163.637C85.4491 164.016 85.5681 164.449 85.5922 164.935L87.6031 178.922C87.3519 184.406 84.1774 192.351 80.6795 196.73L81.1338 197.536C81.1338 197.536 87.8171 193.766 92.7467 190.985L105.782 183.632C107.962 182.402 108.864 180.456 108.478 177.831L98.4931 106.359C98.4525 105.789 98.2965 105.346 98.1465 105.024C97.3449 103.602 96.2227 103.329 94.7534 104.158M78.4773 125.711L81.8076 149.575C82.1835 152.237 81.2917 154.146 79.1113 155.376L59.5827 166.392C58.6821 166.9 58.0848 166.894 57.8279 166.382C57.534 165.861 57.5926 165.078 58.0139 163.997L71.1932 128.914C72.2487 126.131 73.6534 124.246 75.3701 123.246C76.4603 122.631 77.3291 122.953 78.0342 124.149C78.2747 124.575 78.4471 125.103 78.498 125.637" fill="#0B0B0C"/>
<path d="M171.625 65.9797C173.558 67.3577 174.617 70.2904 174.799 71.4999L182.598 127.178C183.556 134.198 179.213 141.178 173.666 145.025C170.498 147.218 166.804 148.865 163.475 150.774C154.333 156.056 145.037 161.175 135.841 166.362C133.566 167.646 131.328 168.94 129.063 170.186C123.707 173.207 118.445 170.022 117.495 162.684C117.04 159.161 116.535 155.384 115.995 151.877C115.102 145.914 114.304 139.898 113.421 133.898C112.603 128.235 111.786 122.573 111.053 116.895C110.691 114.037 110.293 111.169 109.847 108.327C109.868 108.253 109.804 108.195 109.825 108.121C109.036 99.3501 112.31 93.9101 117.903 90.755L163.407 65.0862C166.014 63.6156 169.284 64.2078 171.683 65.9159M235.608 78.0297C234.967 76.8918 235.415 75.858 236.932 75.0024L244.705 70.6173C246.459 69.628 248.877 67.5453 249.95 65.8467C252.389 61.9717 253.425 57.8254 252.862 53.1132L249.464 29.3498C248.977 25.9377 247.423 24.0656 244.322 22.7215C242.394 21.9039 239.947 21.9407 238.108 22.9465L184.405 53.241C180.091 55.6742 173.171 59.578 173.171 59.578L173.465 60.0996C176.332 59.7005 180.416 60.2399 183.419 61.3573C183.568 61.3986 183.716 61.44 183.854 61.5184C184.41 61.6734 185.048 61.5319 185.759 61.1308L226.239 38.2962C227.708 37.4673 228.83 37.7403 229.578 39.0678C229.792 39.4471 229.911 39.8798 229.962 40.4135L233.387 64.2243C233.763 66.8864 232.871 68.7954 230.68 70.0624L211.152 81.0786C209.682 81.9075 208.523 81.6242 207.748 80.2493C207.561 79.9175 207.395 79.5114 207.297 79.0045L205.205 63.1576C205.134 62.6981 204.967 62.2921 204.754 61.9128C203.952 60.4906 202.83 60.2176 201.361 61.0465L188.373 68.3728C186.193 69.6027 185.29 71.5488 185.714 74.1842L193.395 129.71C193.531 130.227 193.697 130.633 193.847 130.954C194.649 132.377 195.771 132.65 197.24 131.821L210.228 124.494C212.408 123.264 213.31 121.318 212.887 118.683L209.445 94.7877C209.144 92.1462 209.883 90.3545 211.589 89.3919C213.296 88.4294 214.972 88.5772 216.561 89.8993L237.004 106.109C238.64 107.405 240.553 107.419 242.733 106.189L262.167 95.2262C265.675 93.2475 274.159 88.4613 274.159 88.4613L273.785 87.7976C270.759 88.1924 266.635 87.8013 263.103 86.8565C263.029 86.8358 262.992 86.8254 262.918 86.8048C262.362 86.6497 261.75 86.8387 261.039 87.2398L255.873 90.1543C253.692 91.3842 251.779 91.3701 250.143 90.0748L236.089 78.883C235.908 78.6727 235.7 78.415 235.567 78.178M403.576 -70.2386C403.576 -70.2386 399.689 -68.0461 396.039 -65.9872L343.995 -36.6285C338.591 -33.5803 334.922 -27.0117 335.879 -19.2727L339.278 4.49072C339.912 9.6624 345.672 13.7861 350.649 10.9786L383.165 -7.36397C384.635 -8.19286 385.757 -7.91988 386.505 -6.59242C386.719 -6.21314 386.875 -5.77004 386.946 -5.31055L389.266 10.7199C389.568 13.3614 388.639 15.26 386.543 16.4736L347.486 38.506C346.396 39.121 345.655 39.9135 345.201 40.8258C345.098 41.1965 344.984 41.6043 344.844 41.9647C344.844 41.9647 344.844 41.9647 344.823 42.0388C343.769 45.1014 342.213 48.1037 340.551 50.1974L340.925 50.8611L348.556 46.5562C350.973 45.1926 353.249 43.9091 354.102 43.4278L400.648 17.1707C406.146 14.0691 409.579 5.91596 408.727 -0.195379L406.566 -16.2216C405.836 -21.3398 399.998 -25.3256 395.115 -22.5715L362.599 -4.22897C361.13 -3.40008 360.008 -3.67307 359.206 -5.09535C359.019 -5.42722 358.89 -5.8229 358.754 -6.34014L355.461 -30.1941C355.102 -32.7718 355.994 -34.6807 358.174 -35.9107L397.231 -57.9431C398.227 -58.5046 399.008 -59.4454 399.502 -60.7861C399.574 -61.0456 399.647 -61.3052 399.719 -61.5647C400.752 -64.5531 402.298 -67.5183 403.929 -69.5008L403.555 -70.1645M323.366 -24.9602L303.837 -13.944C299.287 -11.3771 291.266 -6.82123 291.266 -6.82123L291.693 -6.06269C297.043 -6.76847 303.639 -6.64696 308.993 -2.35676L316.572 51.8211C316.931 54.3988 316.029 56.3448 313.849 57.5748L294.32 68.591C292.851 69.4199 291.728 69.1469 290.98 67.8194C290.766 67.4401 290.647 67.0074 290.623 66.5212L281.666 2.96811C281.625 2.3974 281.506 1.96465 281.309 1.66986C280.507 0.247575 279.385 -0.0254331 277.916 0.803457L258.387 11.8197C253.837 14.3866 245.768 18.9692 245.768 18.9692C245.768 18.9692 245.992 19.3114 246.196 19.7277C251.545 19.0219 258.216 19.1641 263.533 23.444L271.132 77.5477C271.857 82.8246 277.7 86.6517 282.582 83.8976L328.085 58.2288C330.929 56.6245 333.394 53.5158 334.868 50.8101C336.027 48.6562 336.673 44.4808 336.164 40.8627L327.206 -22.6904C327.166 -23.2611 327.047 -23.6939 326.849 -23.9887C326.048 -25.411 324.926 -25.6839 323.456 -24.8551M94.7059 104.184L62.1899 122.527C60.0095 123.757 58.3678 125.776 57.2545 128.623L24.7049 215.403L22.3706 221.624C21.951 222.986 21.4098 224.353 20.8316 225.71C19.6382 228.414 18.2163 230.935 16.6902 232.827L17.1444 233.633L20.9838 231.467C25.2497 229.06 31.7435 225.397 33.4972 224.408L34.303 223.953C36.4834 222.723 38.0777 220.731 39.1332 217.948L52.3125 182.865C53.3681 180.083 54.9727 178.053 57.1531 176.823L81.8956 162.865C83.365 162.037 84.4871 162.31 85.2353 163.637C85.4491 164.016 85.5681 164.449 85.5922 164.935L87.6031 178.922C87.3519 184.406 84.1774 192.351 80.6795 196.73L81.1338 197.536C81.1338 197.536 87.8171 193.766 92.7467 190.985L105.782 183.632C107.962 182.402 108.864 180.456 108.478 177.831L98.4931 106.359C98.4525 105.789 98.2965 105.346 98.1465 105.024C97.3449 103.602 96.2227 103.329 94.7534 104.158M78.4773 125.711L81.8076 149.575C82.1835 152.237 81.2917 154.146 79.1113 155.376L59.5827 166.392C58.6821 166.9 58.0848 166.894 57.8279 166.382C57.534 165.861 57.5926 165.078 58.0139 163.997L71.1932 128.914C72.2487 126.131 73.6534 124.246 75.3701 123.246C76.4603 122.631 77.3291 122.953 78.0342 124.149C78.2747 124.575 78.4471 125.103 78.498 125.637M155.328 82.4523C155.257 81.9928 155.09 81.5868 154.877 81.2075C154.128 79.88 153.006 79.607 151.537 80.4359L132.103 91.3987C129.923 92.6286 128.994 94.5273 129.353 97.1049L137.152 152.783C137.176 153.269 137.295 153.702 137.509 154.081C138.257 155.409 139.379 155.682 140.849 154.853L160.377 143.836C162.558 142.606 163.487 140.708 163.1 138.083L155.302 82.4049L155.328 82.4523Z" stroke="#404040" stroke-width="0.6" stroke-miterlimit="10"/>
<path d="M162.729 62.2238C164.661 63.6019 165.721 66.5345 165.902 67.744L173.701 123.422C174.659 130.442 170.316 137.422 164.77 141.269C161.602 143.463 157.907 145.109 154.579 147.018C145.437 152.3 136.14 157.419 126.945 162.607C124.67 163.89 122.431 165.184 120.167 166.43C114.81 169.452 109.548 166.266 108.598 158.928C108.143 155.405 107.639 151.628 107.099 148.121C106.205 142.158 105.407 136.142 104.524 130.142C103.706 124.479 102.889 118.817 102.156 113.139C101.795 110.281 101.396 107.413 100.95 104.571C100.971 104.497 100.907 104.439 100.928 104.365C100.139 95.5943 103.413 90.1543 109.007 86.9991L154.51 61.3303C157.117 59.8597 160.387 60.452 162.786 62.16M146.432 78.6964C146.36 78.2369 146.194 77.8309 145.98 77.4516C145.232 76.1242 144.11 75.8512 142.64 76.6801L123.206 87.6428C121.026 88.8728 120.097 90.7714 120.457 93.349L128.255 149.027C128.28 149.513 128.399 149.946 128.612 150.325C129.361 151.653 130.483 151.926 131.952 151.097L151.481 140.081C153.661 138.851 154.59 136.952 154.204 134.327L146.405 78.649L146.432 78.6964ZM226.711 74.2738C226.07 73.136 226.518 72.1022 228.035 71.2465L235.809 66.8615C237.562 65.8721 239.98 63.7895 241.053 62.0908C243.492 58.2158 244.529 54.0696 243.965 49.3574L240.567 25.594C240.081 22.1818 238.526 20.3097 235.426 18.9656C233.497 18.148 231.05 18.1849 229.212 19.1906L175.508 49.4852C171.195 51.9184 164.274 55.8222 164.274 55.8222L164.568 56.3437C167.436 55.9446 171.519 56.4841 174.523 57.6014C174.671 57.6428 174.819 57.6841 174.957 57.7625C175.513 57.9176 176.152 57.776 176.863 57.3749L217.342 34.5404C218.811 33.7115 219.933 33.9845 220.682 35.3119C220.895 35.6912 221.014 36.124 221.065 36.6576L224.49 60.4684C224.866 63.1306 223.974 65.0395 221.784 66.3066L202.255 77.3228C200.786 78.1516 199.626 77.8683 198.852 76.4935C198.664 76.1616 198.498 75.7556 198.4 75.2487L196.309 59.4017C196.237 58.9423 196.071 58.5363 195.857 58.157C195.055 56.7347 193.933 56.4617 192.464 57.2906L179.476 64.6169C177.296 65.8469 176.394 67.7929 176.817 70.4283L184.499 125.954C184.634 126.471 184.8 126.877 184.95 127.198C185.752 128.621 186.874 128.894 188.344 128.065L201.331 120.738C203.511 119.509 204.414 117.562 203.99 114.927L200.549 91.0318C200.247 88.3903 200.986 86.5987 202.693 85.6361C204.399 84.6735 206.075 84.8213 207.664 86.1434L228.107 102.354C229.743 103.649 231.656 103.663 233.837 102.433L253.271 91.4703C256.778 89.4917 265.263 84.7055 265.263 84.7055L264.889 84.0418C261.863 84.4365 257.738 84.0454 254.207 83.1006C254.133 83.0799 254.096 83.0696 254.021 83.0489C253.466 82.8939 252.854 83.0828 252.143 83.4839L246.976 86.3984C244.796 87.6284 242.882 87.6142 241.247 86.3189L227.192 75.1272C227.011 74.9169 226.804 74.6591 226.67 74.4221M394.679 -73.9945C394.679 -73.9945 390.793 -71.802 387.143 -69.7431L335.098 -40.3843C329.694 -37.3362 326.025 -30.7676 326.982 -23.0286L330.381 0.734857C331.016 5.90655 336.776 10.0302 341.753 7.2227L374.269 -11.1198C375.738 -11.9487 376.86 -11.6757 377.608 -10.3483C377.822 -9.969 377.978 -9.5259 378.05 -9.06642L380.369 6.96407C380.671 9.60553 379.742 11.5042 377.646 12.7177L338.589 34.7502C337.499 35.3651 336.759 36.1576 336.304 37.0699C336.201 37.4406 336.087 37.8484 335.947 38.2088C335.947 38.2088 335.947 38.2088 335.926 38.283C334.872 41.3455 333.316 44.3478 331.654 46.4415L332.028 47.1052L339.659 42.8004C342.077 41.4367 344.352 40.1533 345.205 39.672L391.751 13.4149C397.25 10.3132 400.682 2.16008 399.83 -3.95126L397.669 -19.9775C396.939 -25.0957 391.101 -29.0814 386.219 -26.3274L353.703 -7.98484C352.233 -7.15595 351.111 -7.42893 350.309 -8.85122C350.122 -9.18308 349.993 -9.57878 349.858 -10.096L346.565 -33.95C346.205 -36.5276 347.097 -38.4366 349.277 -39.6666L388.334 -61.699C389.33 -62.2605 390.111 -63.2013 390.605 -64.542C390.678 -64.8015 390.75 -65.061 390.822 -65.3206C391.855 -68.3089 393.401 -71.2742 395.033 -73.2566L394.659 -73.9204M314.469 -28.7161L294.94 -17.6999C290.39 -15.133 282.369 -10.5771 282.369 -10.5771L282.797 -9.81856C288.146 -10.5243 294.743 -10.4028 300.097 -6.11262L307.675 48.0653C308.034 50.6429 307.132 52.5889 304.952 53.8189L285.423 64.8351C283.954 65.664 282.832 65.391 282.083 64.0636C281.87 63.6843 281.751 63.2515 281.727 62.7653L272.769 -0.787745C272.728 -1.35846 272.609 -1.79121 272.412 -2.086C271.61 -3.50829 270.488 -3.78129 269.019 -2.9524L249.49 8.06383C244.94 10.6307 236.872 15.2133 236.872 15.2133C236.872 15.2133 237.096 15.5555 237.299 15.9719C242.649 15.2661 249.319 15.4083 254.636 19.6881L262.235 73.7919C262.96 79.0687 268.803 82.8958 273.685 80.1417L319.189 54.4729C322.033 52.8686 324.497 49.76 325.971 47.0543C327.131 44.9004 327.776 40.725 327.267 37.1068L318.309 -26.4463C318.269 -27.017 318.15 -27.4497 317.953 -27.7445C317.151 -29.1668 316.029 -29.4398 314.559 -28.6109M85.8092 100.429L53.2931 118.771C51.1127 120.001 49.4711 122.021 48.3578 124.867L15.8081 211.647L13.4739 217.869C13.0543 219.23 12.5131 220.597 11.9349 221.955C10.7415 224.659 9.31961 227.179 7.79342 229.071L8.24767 229.877L12.087 227.711C16.353 225.304 22.8467 221.641 24.6005 220.652L25.4063 220.197C27.5867 218.967 29.181 216.975 30.2365 214.192L43.4158 179.109C44.4713 176.327 46.0759 174.297 48.2563 173.067L72.9989 159.11C74.4683 158.281 75.5904 158.554 76.3386 159.881C76.5524 160.26 76.6713 160.693 76.6955 161.179L78.7064 175.166C78.4551 180.65 75.2807 188.595 71.7828 192.974L72.2371 193.78C72.2371 193.78 78.9204 190.01 83.8499 187.229L96.8848 179.876C99.0652 178.646 99.9674 176.7 99.5811 174.075L89.5963 102.604C89.5558 102.033 89.3997 101.59 89.2498 101.268C88.4481 99.8459 87.326 99.5729 85.8566 100.402M69.5805 121.955L72.9108 145.819C73.2868 148.481 72.3949 150.39 70.2145 151.62L50.6859 162.636C49.7853 163.144 49.1881 163.138 48.9312 162.627C48.6373 162.105 48.6958 161.322 49.1172 160.241L62.2965 125.158C63.352 122.375 64.7567 120.49 66.4734 119.49C67.5636 118.875 68.4324 119.197 69.1374 120.393C69.3779 120.819 69.5503 121.347 69.6012 121.881" fill="#0B0B0C"/>
<path d="M162.729 62.2238C164.661 63.6019 165.721 66.5345 165.902 67.744L173.701 123.422C174.659 130.442 170.316 137.422 164.77 141.269C161.602 143.463 157.907 145.109 154.579 147.018C145.437 152.3 136.14 157.419 126.945 162.607C124.67 163.89 122.431 165.184 120.167 166.43C114.81 169.452 109.548 166.266 108.598 158.928C108.143 155.405 107.639 151.628 107.099 148.121C106.205 142.158 105.407 136.142 104.524 130.142C103.706 124.479 102.889 118.817 102.156 113.139C101.795 110.281 101.396 107.413 100.95 104.571C100.971 104.497 100.907 104.439 100.928 104.365C100.139 95.5943 103.413 90.1543 109.007 86.9991L154.51 61.3303C157.117 59.8597 160.387 60.452 162.786 62.16M226.711 74.2738C226.07 73.136 226.518 72.1022 228.035 71.2465L235.809 66.8615C237.562 65.8721 239.98 63.7895 241.053 62.0908C243.492 58.2158 244.529 54.0696 243.965 49.3574L240.567 25.594C240.081 22.1818 238.526 20.3097 235.426 18.9656C233.497 18.148 231.05 18.1849 229.212 19.1906L175.508 49.4852C171.195 51.9184 164.274 55.8222 164.274 55.8222L164.568 56.3437C167.436 55.9446 171.519 56.4841 174.523 57.6014C174.671 57.6428 174.819 57.6841 174.957 57.7625C175.513 57.9176 176.152 57.776 176.863 57.3749L217.342 34.5404C218.811 33.7115 219.933 33.9845 220.682 35.3119C220.895 35.6912 221.014 36.124 221.065 36.6576L224.49 60.4684C224.866 63.1305 223.974 65.0395 221.784 66.3066L202.255 77.3228C200.786 78.1517 199.626 77.8683 198.852 76.4935C198.664 76.1616 198.498 75.7556 198.4 75.2487L196.309 59.4018C196.237 58.9423 196.071 58.5363 195.857 58.157C195.055 56.7347 193.933 56.4617 192.464 57.2906L179.476 64.6169C177.296 65.8469 176.394 67.7929 176.817 70.4283L184.499 125.954C184.634 126.471 184.8 126.877 184.95 127.198C185.752 128.621 186.874 128.894 188.344 128.065L201.331 120.738C203.511 119.509 204.414 117.562 203.99 114.927L200.549 91.0318C200.247 88.3903 200.986 86.5987 202.693 85.6361C204.399 84.6735 206.075 84.8213 207.664 86.1434L228.107 102.354C229.743 103.649 231.656 103.663 233.837 102.433L253.271 91.4703C256.778 89.4917 265.263 84.7055 265.263 84.7055L264.889 84.0417C261.863 84.4365 257.738 84.0454 254.207 83.1006C254.133 83.0799 254.096 83.0696 254.021 83.0489C253.466 82.8939 252.854 83.0828 252.143 83.4839L246.976 86.3984C244.796 87.6284 242.882 87.6142 241.247 86.3189L227.192 75.1272C227.011 74.9169 226.804 74.6591 226.67 74.4221M394.679 -73.9945C394.679 -73.9945 390.793 -71.802 387.143 -69.7431L335.098 -40.3843C329.694 -37.3362 326.025 -30.7676 326.982 -23.0286L330.381 0.734858C331.016 5.90654 336.776 10.0302 341.753 7.2227L374.269 -11.1198C375.738 -11.9487 376.86 -11.6757 377.608 -10.3483C377.822 -9.969 377.978 -9.5259 378.05 -9.06641L380.369 6.96407C380.671 9.60552 379.742 11.5042 377.646 12.7177L338.589 34.7502C337.499 35.3652 336.759 36.1576 336.304 37.0699C336.201 37.4406 336.087 37.8484 335.947 38.2088C335.947 38.2088 335.947 38.2088 335.926 38.283C334.872 41.3455 333.316 44.3478 331.654 46.4415L332.028 47.1052L339.659 42.8004C342.077 41.4367 344.352 40.1533 345.205 39.672L391.751 13.4149C397.25 10.3132 400.682 2.16008 399.83 -3.95126L397.669 -19.9775C396.939 -25.0957 391.101 -29.0814 386.219 -26.3274L353.703 -7.98484C352.233 -7.15594 351.111 -7.42893 350.309 -8.85121C350.122 -9.18308 349.993 -9.57877 349.858 -10.096L346.565 -33.95C346.205 -36.5276 347.097 -38.4366 349.277 -39.6666L388.334 -61.699C389.33 -62.2605 390.111 -63.2013 390.605 -64.542C390.678 -64.8015 390.75 -65.061 390.822 -65.3206C391.855 -68.3089 393.401 -71.2742 395.033 -73.2566L394.659 -73.9204M314.469 -28.7161L294.94 -17.6999C290.39 -15.133 282.369 -10.5771 282.369 -10.5771L282.797 -9.81856C288.146 -10.5243 294.743 -10.4028 300.097 -6.11262L307.675 48.0652C308.034 50.6429 307.132 52.5889 304.952 53.8189L285.423 64.8351C283.954 65.664 282.832 65.391 282.083 64.0636C281.87 63.6843 281.751 63.2515 281.727 62.7653L272.769 -0.787748C272.728 -1.35846 272.609 -1.79121 272.412 -2.086C271.61 -3.50828 270.488 -3.78129 269.019 -2.9524L249.49 8.06383C244.94 10.6307 236.872 15.2133 236.872 15.2133C236.872 15.2133 237.096 15.5555 237.299 15.9719C242.649 15.2661 249.319 15.4083 254.636 19.6881L262.235 73.7919C262.96 79.0687 268.803 82.8958 273.685 80.1418L319.189 54.4729C322.033 52.8686 324.497 49.76 325.971 47.0543C327.131 44.9004 327.776 40.725 327.267 37.1068L318.309 -26.4463C318.269 -27.017 318.15 -27.4497 317.953 -27.7445C317.151 -29.1668 316.029 -29.4398 314.559 -28.6109M85.8092 100.429L53.2931 118.771C51.1127 120.001 49.4711 122.021 48.3578 124.867L15.8081 211.647L13.4739 217.869C13.0543 219.23 12.5131 220.597 11.9349 221.955C10.7415 224.659 9.31961 227.179 7.79342 229.071L8.24767 229.877L12.087 227.711C16.353 225.304 22.8467 221.641 24.6005 220.652L25.4063 220.197C27.5867 218.967 29.181 216.975 30.2365 214.192L43.4158 179.109C44.4713 176.327 46.0759 174.297 48.2563 173.067L72.9989 159.11C74.4683 158.281 75.5904 158.554 76.3386 159.881C76.5524 160.26 76.6713 160.693 76.6955 161.179L78.7064 175.166C78.4551 180.65 75.2807 188.595 71.7828 192.974L72.2371 193.78C72.2371 193.78 78.9204 190.01 83.8499 187.229L96.8848 179.876C99.0652 178.646 99.9674 176.7 99.5811 174.075L89.5963 102.604C89.5558 102.033 89.3997 101.59 89.2498 101.268C88.4481 99.8459 87.326 99.5729 85.8566 100.402M69.5805 121.955L72.9108 145.819C73.2868 148.481 72.3949 150.39 70.2145 151.62L50.6859 162.636C49.7853 163.144 49.1881 163.138 48.9312 162.627C48.6373 162.105 48.6958 161.322 49.1172 160.241L62.2965 125.158C63.352 122.375 64.7567 120.49 66.4734 119.49C67.5636 118.875 68.4324 119.197 69.1374 120.393C69.3779 120.819 69.5503 121.347 69.6012 121.881M146.432 78.6964C146.36 78.2369 146.194 77.8309 145.98 77.4516C145.232 76.1242 144.11 75.8512 142.64 76.6801L123.206 87.6428C121.026 88.8728 120.097 90.7714 120.457 93.349L128.255 149.027C128.28 149.513 128.399 149.946 128.612 150.325C129.361 151.653 130.483 151.926 131.952 151.097L151.481 140.081C153.661 138.851 154.59 136.952 154.204 134.327L146.405 78.649L146.432 78.6964Z" stroke="#404040" stroke-width="0.6" stroke-miterlimit="10"/>
<path d="M153.831 58.4607C155.764 59.8387 156.823 62.7714 157.005 63.9809L164.804 119.659C165.752 126.716 161.419 133.659 155.872 137.506C152.704 139.699 149.01 141.346 145.681 143.255C136.539 148.537 127.243 153.656 118.047 158.843C115.772 160.127 113.534 161.421 111.269 162.667C105.913 165.688 100.65 162.503 99.701 155.165C99.2457 151.642 98.7413 147.865 98.2015 144.358C97.3082 138.395 96.5096 132.379 95.6266 126.379C94.8092 120.716 93.9917 115.054 93.2587 109.376C92.8974 106.518 92.499 103.65 92.0532 100.808C92.0739 100.734 92.0101 100.676 92.0308 100.602C91.2415 91.8312 94.5161 86.3912 100.109 83.236L145.613 57.5672C148.22 56.0966 151.49 56.6888 153.889 58.3969M137.534 74.9333C137.463 74.4738 137.296 74.0678 137.083 73.6885C136.334 72.361 135.212 72.088 133.743 72.9169L114.309 83.8797C112.129 85.1096 111.2 87.0083 111.559 89.5859L119.358 145.264C119.382 145.75 119.501 146.183 119.715 146.562C120.463 147.89 121.585 148.163 123.055 147.334L142.583 136.317C144.764 135.087 145.693 133.189 145.306 130.564L137.508 74.8859L137.534 74.9333ZM217.814 70.5107C217.173 69.3729 217.621 68.3391 219.138 67.4834L226.911 63.0983C228.665 62.109 231.083 60.0264 232.156 58.3277C234.595 54.4527 235.631 50.3065 235.068 45.5943L231.67 21.8309C231.183 18.4187 229.629 16.5466 226.528 15.2025C224.6 14.3849 222.153 14.4217 220.315 15.4275L166.611 45.7221C162.297 48.1553 155.377 52.0591 155.377 52.0591L155.671 52.5806C158.538 52.1815 162.622 52.721 165.625 53.8383C165.774 53.8797 165.922 53.921 166.06 53.9994C166.616 54.1545 167.254 54.0129 167.965 53.6118L208.445 30.7772C209.914 29.9484 211.036 30.2213 211.784 31.5488C211.998 31.9281 212.117 32.3608 212.131 32.8841L215.556 56.695C215.932 59.3571 215.04 61.2661 212.849 62.5331L193.321 73.5493C191.851 74.3782 190.692 74.0949 189.917 72.72C189.73 72.3881 189.564 71.9821 189.465 71.4752L187.374 55.6283C187.303 55.1688 187.136 54.7628 186.923 54.3835C186.121 52.9612 184.999 52.6883 183.529 53.5171L170.542 60.8435C168.362 62.0734 167.459 64.0195 167.883 66.6549L175.564 122.18C175.7 122.697 175.866 123.103 176.016 123.425C176.818 124.847 177.94 125.12 179.409 124.291L192.397 116.965C194.577 115.735 195.479 113.789 195.056 111.154L191.614 87.2583C191.313 84.6169 192.052 82.8252 193.758 81.8626C195.465 80.9 197.141 81.0479 198.729 82.3699L219.173 98.5801C220.809 99.8754 222.722 99.8896 224.902 98.6596L244.336 87.6968C247.844 85.7182 256.328 80.932 256.328 80.932L255.954 80.2683C252.918 80.7002 248.803 80.2719 245.272 79.3271C245.198 79.3065 245.161 79.2961 245.087 79.2755C244.531 79.1204 243.919 79.3094 243.208 79.7105L238.042 82.625C235.861 83.8549 233.948 83.8408 232.312 82.5455L218.258 71.3537C218.077 71.1434 217.869 70.8857 217.736 70.6486M385.745 -77.7679C385.745 -77.7679 381.858 -75.5754 378.208 -73.5165L326.164 -44.1578C320.76 -41.1096 317.091 -34.541 318.048 -26.802L321.447 -3.0386C322.081 2.13309 327.841 6.25679 332.818 3.44926L365.334 -14.8933C366.804 -15.7222 367.926 -15.4492 368.674 -14.1217C368.888 -13.7424 369.044 -13.2993 369.115 -12.8399L371.435 3.19064C371.737 5.83209 370.808 7.73072 368.712 8.94429L329.655 30.9767C328.565 31.5917 327.824 32.3842 327.37 33.2964C327.267 33.6672 327.153 34.075 327.013 34.4354C327.013 34.4354 327.013 34.4354 326.992 34.5095C325.938 37.5721 324.372 40.6115 322.719 42.6681L323.094 43.3318L330.725 39.0269C333.142 37.6633 335.417 36.3798 336.271 35.8985L382.817 9.64142C388.315 6.53977 391.747 -1.61336 390.895 -7.72469L388.734 -23.7509C388.005 -28.8691 382.167 -32.8549 377.284 -30.1008L344.768 -11.7583C343.299 -10.9294 342.177 -11.2024 341.375 -12.6247C341.188 -12.9565 341.059 -13.3522 340.923 -13.8694L337.63 -37.7234C337.271 -40.301 338.162 -42.21 340.343 -43.44L379.4 -65.4724C380.395 -66.0339 381.177 -66.9747 381.671 -68.3154C381.743 -68.575 381.816 -68.8345 381.888 -69.094C382.921 -72.0824 384.467 -75.0476 386.098 -77.0301L385.724 -77.6938M305.535 -32.4895L286.006 -21.4733C281.456 -18.9064 273.435 -14.3505 273.435 -14.3505L273.862 -13.592C279.212 -14.2978 285.808 -14.1763 291.162 -9.88606L298.74 44.2918C299.1 46.8694 298.198 48.8155 296.017 50.0455L276.489 61.0617C275.019 61.8906 273.897 61.6176 273.149 60.2901C272.935 59.9108 272.816 59.4781 272.792 58.9919L263.835 -4.56119C263.784 -5.09483 263.675 -5.56467 263.478 -5.85946C262.676 -7.28175 261.554 -7.55474 260.084 -6.72585L240.556 4.29039C236.005 6.85727 227.937 11.4399 227.937 11.4399C227.937 11.4399 228.161 11.7821 228.365 12.1984C233.714 11.4926 240.385 11.6348 245.702 15.9147L253.301 70.0184C254.026 75.2952 259.869 79.1224 264.751 76.3683L310.254 50.6995C313.098 49.0952 315.563 45.9865 317.037 43.2808C318.196 41.1269 318.842 36.9515 318.333 33.3334L309.375 -30.2197C309.335 -30.7904 309.216 -31.2232 309.018 -31.518C308.217 -32.9402 307.094 -33.2132 305.625 -32.3844M76.8749 96.6551L44.3588 114.998C42.1784 116.228 40.5367 118.247 39.4235 121.093L6.87379 207.873L4.53955 214.095C4.11993 215.457 3.57879 216.824 3.00058 218.181C1.80713 220.885 0.385282 223.405 -1.1409 225.297L-0.686651 226.103L3.15271 223.938C7.41867 221.531 13.9124 217.868 15.6662 216.879L16.472 216.424C18.6524 215.194 20.2466 213.201 21.3022 210.419L34.4815 175.336C35.537 172.553 37.1416 170.523 39.322 169.294L64.0646 155.336C65.5339 154.507 66.6561 154.78 67.4043 156.108C67.618 156.487 67.737 156.92 67.7612 157.406L69.7721 171.392C69.5208 176.876 66.3464 184.822 62.8485 189.201L63.3027 190.006C63.3027 190.006 69.9861 186.236 74.9156 183.456L87.9505 176.103C90.1309 174.873 91.0331 172.927 90.6468 170.301L80.662 98.8301C80.6214 98.2594 80.4654 97.8163 80.3154 97.4948C79.5138 96.0725 78.3917 95.7995 76.9223 96.6284M60.6462 118.181L63.9765 142.046C64.3525 144.708 63.4606 146.617 61.2802 147.847L41.7516 158.863C40.851 159.371 40.2537 159.364 39.9969 158.853C39.74 158.342 39.7615 157.549 40.1829 156.468L53.3621 121.384C54.4177 118.602 55.8224 116.716 57.5391 115.717C58.6293 115.102 59.498 115.424 60.2031 116.619C60.4436 117.046 60.616 117.574 60.6669 118.107" fill="#0B0B0C"/>
<path d="M153.831 58.4607C155.764 59.8387 156.823 62.7714 157.005 63.9809L164.804 119.659C165.752 126.716 161.419 133.659 155.872 137.506C152.704 139.699 149.01 141.346 145.681 143.255C136.539 148.537 127.243 153.656 118.047 158.843C115.772 160.127 113.534 161.421 111.269 162.667C105.913 165.688 100.651 162.503 99.7011 155.165C99.2457 151.642 98.7413 147.865 98.2015 144.358C97.3081 138.395 96.5096 132.379 95.6266 126.379C94.8092 120.716 93.9917 115.054 93.2587 109.376C92.8974 106.518 92.499 103.65 92.0532 100.808C92.0739 100.734 92.0101 100.676 92.0308 100.602C91.2415 91.8311 94.5161 86.3912 100.109 83.236L145.613 57.5672C148.22 56.0966 151.49 56.6888 153.889 58.3969M217.814 70.5107C217.173 69.3729 217.621 68.3391 219.138 67.4834L226.911 63.0983C228.665 62.109 231.083 60.0263 232.156 58.3277C234.595 54.4527 235.631 50.3065 235.068 45.5943L231.67 21.8309C231.183 18.4187 229.629 16.5466 226.528 15.2025C224.6 14.3849 222.153 14.4218 220.315 15.4275L166.611 45.7221C162.297 48.1553 155.377 52.0591 155.377 52.0591L155.671 52.5806C158.538 52.1815 162.622 52.721 165.625 53.8383C165.774 53.8797 165.922 53.921 166.06 53.9994C166.616 54.1545 167.254 54.0129 167.965 53.6118L208.445 30.7772C209.914 29.9484 211.036 30.2213 211.784 31.5488C211.998 31.9281 212.117 32.3608 212.131 32.8841L215.556 56.695C215.932 59.3571 215.04 61.2661 212.849 62.5331L193.321 73.5493C191.851 74.3782 190.692 74.0949 189.917 72.72C189.73 72.3882 189.564 71.9821 189.465 71.4752L187.374 55.6283C187.303 55.1688 187.136 54.7628 186.923 54.3835C186.121 52.9612 184.999 52.6883 183.529 53.5171L170.542 60.8435C168.362 62.0734 167.459 64.0195 167.883 66.6549L175.564 122.18C175.7 122.697 175.866 123.103 176.016 123.425C176.818 124.847 177.94 125.12 179.409 124.291L192.397 116.965C194.577 115.735 195.479 113.789 195.056 111.154L191.614 87.2583C191.313 84.6169 192.052 82.8252 193.758 81.8626C195.465 80.9 197.141 81.0479 198.729 82.3699L219.173 98.5801C220.809 99.8754 222.722 99.8896 224.902 98.6596L244.336 87.6968C247.844 85.7182 256.328 80.932 256.328 80.932L255.954 80.2683C252.918 80.7002 248.803 80.2719 245.272 79.3271C245.198 79.3065 245.161 79.2961 245.087 79.2755C244.531 79.1204 243.919 79.3094 243.208 79.7105L238.042 82.625C235.861 83.8549 233.948 83.8408 232.312 82.5455L218.258 71.3537C218.077 71.1434 217.869 70.8857 217.736 70.6486M385.745 -77.7679C385.745 -77.7679 381.858 -75.5754 378.208 -73.5165L326.164 -44.1578C320.76 -41.1096 317.091 -34.541 318.048 -26.802L321.447 -3.0386C322.081 2.13309 327.841 6.25679 332.818 3.44926L365.334 -14.8933C366.804 -15.7222 367.926 -15.4492 368.674 -14.1217C368.888 -13.7424 369.044 -13.2993 369.115 -12.8399L371.435 3.19064C371.737 5.83209 370.808 7.73072 368.712 8.94429L329.655 30.9767C328.565 31.5917 327.824 32.3842 327.37 33.2964C327.267 33.6672 327.153 34.075 327.013 34.4354C327.013 34.4354 327.013 34.4354 326.992 34.5095C325.938 37.5721 324.372 40.6115 322.719 42.6681L323.094 43.3318L330.725 39.0269C333.142 37.6633 335.417 36.3798 336.271 35.8985L382.817 9.64142C388.315 6.53977 391.747 -1.61336 390.895 -7.72469L388.734 -23.7509C388.005 -28.8691 382.167 -32.8549 377.284 -30.1008L344.768 -11.7583C343.299 -10.9294 342.177 -11.2024 341.375 -12.6247C341.188 -12.9565 341.059 -13.3522 340.923 -13.8694L337.63 -37.7234C337.271 -40.301 338.162 -42.21 340.343 -43.44L379.4 -65.4724C380.395 -66.0339 381.177 -66.9747 381.671 -68.3154C381.743 -68.575 381.816 -68.8345 381.888 -69.094C382.921 -72.0824 384.467 -75.0476 386.098 -77.0301L385.724 -77.6938M305.535 -32.4895L286.006 -21.4733C281.456 -18.9064 273.435 -14.3506 273.435 -14.3506L273.862 -13.592C279.212 -14.2978 285.808 -14.1763 291.162 -9.88606L298.74 44.2918C299.1 46.8694 298.198 48.8155 296.017 50.0455L276.489 61.0617C275.019 61.8906 273.897 61.6176 273.149 60.2901C272.935 59.9108 272.816 59.4781 272.792 58.9919L263.835 -4.56119C263.784 -5.09483 263.675 -5.56467 263.478 -5.85946C262.676 -7.28174 261.554 -7.55474 260.084 -6.72585L240.556 4.29039C236.005 6.85727 227.937 11.4399 227.937 11.4399C227.937 11.4399 228.161 11.7821 228.365 12.1984C233.714 11.4926 240.385 11.6348 245.702 15.9147L253.301 70.0184C254.026 75.2952 259.869 79.1224 264.751 76.3683L310.254 50.6995C313.098 49.0952 315.563 45.9865 317.037 43.2808C318.196 41.1269 318.842 36.9515 318.333 33.3333L309.375 -30.2197C309.335 -30.7904 309.216 -31.2232 309.018 -31.518C308.217 -32.9403 307.094 -33.2132 305.625 -32.3844M76.8749 96.6551L44.3588 114.998C42.1784 116.228 40.5368 118.247 39.4235 121.093L6.8738 207.873L4.53955 214.095C4.11993 215.457 3.57878 216.824 3.00059 218.181C1.80714 220.885 0.385283 223.405 -1.1409 225.297L-0.686654 226.103L3.15271 223.937C7.41867 221.531 13.9124 217.868 15.6662 216.879L16.472 216.424C18.6524 215.194 20.2466 213.201 21.3022 210.419L34.4815 175.336C35.537 172.553 37.1416 170.523 39.322 169.294L64.0646 155.336C65.5339 154.507 66.6561 154.78 67.4043 156.108C67.618 156.487 67.737 156.92 67.7612 157.406L69.7721 171.392C69.5208 176.876 66.3464 184.822 62.8485 189.201L63.3027 190.006C63.3027 190.006 69.9861 186.236 74.9156 183.456L87.9505 176.103C90.1309 174.873 91.0331 172.927 90.6468 170.301L80.662 98.8301C80.6214 98.2594 80.4654 97.8163 80.3154 97.4948C79.5138 96.0725 78.3917 95.7995 76.9223 96.6284M60.6462 118.181L63.9765 142.046C64.3525 144.708 63.4606 146.617 61.2802 147.847L41.7516 158.863C40.851 159.371 40.2538 159.364 39.9969 158.853C39.74 158.342 39.7615 157.549 40.1829 156.468L53.3621 121.384C54.4177 118.602 55.8223 116.716 57.5391 115.717C58.6293 115.102 59.498 115.424 60.2031 116.619C60.4436 117.046 60.616 117.574 60.6669 118.107M137.534 74.9333C137.463 74.4738 137.296 74.0678 137.083 73.6885C136.334 72.361 135.212 72.0881 133.743 72.9169L114.309 83.8797C112.129 85.1096 111.2 87.0083 111.559 89.5859L119.358 145.264C119.382 145.75 119.501 146.183 119.715 146.562C120.463 147.89 121.585 148.163 123.055 147.334L142.583 136.317C144.764 135.087 145.693 133.189 145.306 130.564L137.508 74.8859L137.534 74.9333Z" stroke="#404040" stroke-width="0.6" stroke-miterlimit="10"/>
</svg>
