<svg width="51" height="51" viewBox="0 0 51 51" fill="none" xmlns="http://www.w3.org/2000/svg">
<g clip-path="url(#clip0_585_5270)">
<path d="M3.5 18.5H12.5V21.5H1.5L3.5 18.5Z" fill="url(#paint0_linear_585_5270)"/>
<path d="M25.5 7L15.5 7L14.5 4L27.5 4L25.5 7Z" fill="url(#paint1_linear_585_5270)"/>
<path d="M39.5 28.5H50.5L48.5 31.5H40.5L39.5 28.5Z" fill="url(#paint2_linear_585_5270)"/>
<path d="M36.5 43H46.5L44.5 46H33.5L36.5 43Z" fill="url(#paint3_linear_585_5270)"/>
<path d="M34.6913 25.7872C34.8344 27.0678 35.0124 29.1962 34.9113 31.1683C34.8603 32.1624 34.7398 33.0839 34.5234 33.8246C34.3011 34.5858 34.0116 35.0377 33.7129 35.2466L33.7069 35.2507C33.7022 35.2536 33.6944 35.2583 33.6836 35.2644C33.6514 35.2825 33.5957 35.3113 33.5191 35.3421C33.3658 35.4038 33.1338 35.4717 32.8389 35.4838C32.2837 35.5064 31.3948 35.3355 30.2953 34.3094L29.7155 33.4991L29.7029 32.5073L29.6979 32.1172L29.6726 32.0997L30.0466 31.6329C30.1108 31.5527 30.1757 31.4701 30.2459 31.3808C30.3666 31.2272 30.5028 31.0538 30.6778 30.8391L30.6779 30.8391L30.6862 30.8286C31.343 29.9931 32.2274 28.8834 33.1142 27.7706L33.1149 27.7697C33.7159 27.0133 34.2414 26.3525 34.6913 25.7872ZM20.9943 31.6429L21.3191 32.0474L21.2791 32.0741L21.2741 32.4731L21.2614 33.4912L20.6817 34.3014C19.5826 35.327 18.6945 35.4959 18.14 35.4719C17.8453 35.4591 17.6133 35.3905 17.4599 35.3283C17.3832 35.2972 17.3275 35.2682 17.2952 35.2499C17.2845 35.2439 17.2767 35.2392 17.272 35.2362L17.2641 35.2307C16.9652 35.0218 16.6758 34.5701 16.4535 33.8097C16.2372 33.0697 16.1166 32.149 16.0657 31.1553C15.9671 29.2334 16.1339 27.1618 16.2749 25.8688L16.3125 25.7937C16.7383 26.3283 17.2538 26.9763 17.8778 27.7617L17.8778 27.7617L17.8802 27.7648L20.9943 31.6429Z" stroke="#F4F4F4" stroke-width="1.51255"/>
<path d="M32.7186 15.7955H18.3635C18.3324 15.7955 18.3047 15.776 18.2942 15.7467L14.4798 5.07197C14.2347 4.38597 13.223 4.54082 13.1943 5.26874L12.3809 25.8914C12.3806 25.8986 12.3792 25.9058 12.3769 25.9126L8.66309 36.6635C8.5531 36.9819 8.63384 37.3352 8.87123 37.5742L13.5194 42.2541L17.052 45.8561C17.3421 46.152 17.8297 46.1117 18.0674 45.7723L19.0723 44.3373C19.0863 44.3173 19.1095 44.3055 19.134 44.306L22.878 44.378C22.903 44.3785 22.9262 44.3917 22.9393 44.4131L25.0093 47.7868C25.2402 48.163 25.7878 48.1608 26.0155 47.7826L28.0442 44.4137C28.0573 44.392 28.0806 44.3785 28.1059 44.378L31.9449 44.306C31.9707 44.3055 31.9948 44.3185 32.0085 44.3403L32.8623 45.6936C33.095 46.0624 33.6144 46.1097 33.9098 45.7889L37.0628 42.3645L42.0883 37.6441C42.3393 37.4083 42.4303 37.0481 42.3215 36.7213L38.7293 25.9357C38.7271 25.9292 38.7259 25.9224 38.7256 25.9156L37.8358 5.27263C37.8044 4.54464 36.7918 4.39368 36.5494 5.08087L32.788 15.7464C32.7776 15.7759 32.7498 15.7955 32.7186 15.7955Z" stroke="#F4F4F4" stroke-width="1.51255" stroke-linecap="round"/>
</g>
<defs>
<linearGradient id="paint0_linear_585_5270" x1="2.5" y1="20" x2="12.5" y2="20" gradientUnits="userSpaceOnUse">
<stop offset="0.405" stop-color="#ED5D00"/>
<stop offset="1" stop-color="#ED5D00" stop-opacity="0"/>
</linearGradient>
<linearGradient id="paint1_linear_585_5270" x1="24.5" y1="5.5" x2="14.5" y2="5.5" gradientUnits="userSpaceOnUse">
<stop offset="0.405" stop-color="#ED5D00"/>
<stop offset="1" stop-color="#ED5D00" stop-opacity="0"/>
</linearGradient>
<linearGradient id="paint2_linear_585_5270" x1="50.5" y1="30" x2="39.5" y2="30" gradientUnits="userSpaceOnUse">
<stop offset="0.41" stop-color="#ED5D00"/>
<stop offset="1" stop-color="#ED5D00" stop-opacity="0"/>
</linearGradient>
<linearGradient id="paint3_linear_585_5270" x1="43.5" y1="44.5" x2="32.5" y2="44.5" gradientUnits="userSpaceOnUse">
<stop offset="0.41" stop-color="#ED5D00"/>
<stop offset="1" stop-color="#ED5D00" stop-opacity="0"/>
</linearGradient>
<clipPath id="clip0_585_5270">
<rect width="50" height="50" fill="white" transform="translate(0.5 0.5)"/>
</clipPath>
</defs>
</svg>
